<svg xmlns="http://www.w3.org/2000/svg" viewBox="0 0 1024 1024" role="img" aria-hidden="true">
<path fill="#0D6CB4" fill-rule="evenodd" d="M 874 566 L 865 569 L 859 569 L 857 572 L 854 572 L 852 569 L 849 575 L 841 578 L 836 577 L 835 580 L 829 580 L 827 583 L 818 586 L 821 595 L 820 602 L 822 603 L 823 609 L 826 611 L 831 626 L 830 631 L 834 635 L 838 647 L 837 650 L 839 651 L 838 654 L 841 656 L 846 670 L 845 674 L 685 674 L 684 670 L 692 646 L 696 641 L 695 638 L 697 633 L 694 633 L 669 643 L 666 642 L 664 645 L 635 655 L 630 659 L 611 734 L 608 735 L 608 747 L 615 752 L 617 750 L 632 750 L 633 752 L 634 750 L 641 750 L 642 752 L 647 750 L 648 752 L 649 750 L 654 749 L 658 743 L 670 709 L 844 709 L 845 711 L 846 709 L 858 709 L 862 722 L 860 723 L 864 725 L 869 739 L 868 743 L 870 743 L 875 750 L 882 750 L 883 752 L 894 752 L 895 750 L 898 750 L 899 752 L 901 750 L 906 750 L 908 752 L 909 750 L 915 750 L 916 752 L 919 748 L 921 748 L 918 743 L 918 740 L 920 739 L 918 739 L 914 726 L 915 722 L 912 719 L 912 716 L 914 714 L 911 713 L 911 704 L 908 702 L 886 615 L 886 611 L 888 609 L 886 609 L 884 606 L 880 590 L 881 585 L 878 582 Z M 907 506 L 905 505 L 904 502 L 898 496 L 897 497 L 887 498 L 870 505 L 865 504 L 862 507 L 859 507 L 856 510 L 848 513 L 844 512 L 843 515 L 827 521 L 824 520 L 823 522 L 820 521 L 819 524 L 815 525 L 811 528 L 808 529 L 804 528 L 804 530 L 800 532 L 796 531 L 795 534 L 787 536 L 761 547 L 749 551 L 745 550 L 745 552 L 742 554 L 739 553 L 736 556 L 732 555 L 728 559 L 720 562 L 716 561 L 716 563 L 712 565 L 707 564 L 706 567 L 701 569 L 692 570 L 690 573 L 679 577 L 673 577 L 671 580 L 656 585 L 653 587 L 647 589 L 643 588 L 643 590 L 640 592 L 629 596 L 625 595 L 624 598 L 616 601 L 610 601 L 608 604 L 605 605 L 600 604 L 600 606 L 592 613 L 591 617 L 592 623 L 597 636 L 597 639 L 595 640 L 597 640 L 599 642 L 599 644 L 603 650 L 610 653 L 614 653 L 616 655 L 617 652 L 624 649 L 632 647 L 672 631 L 677 632 L 677 630 L 680 628 L 691 624 L 695 625 L 698 622 L 713 617 L 721 613 L 724 613 L 725 615 L 726 612 L 729 613 L 729 611 L 732 609 L 756 600 L 760 601 L 761 598 L 766 597 L 786 588 L 794 587 L 795 585 L 818 576 L 824 576 L 826 573 L 841 568 L 844 566 L 850 564 L 853 565 L 857 561 L 863 560 L 885 551 L 889 552 L 890 549 L 895 548 L 909 542 L 913 537 L 913 532 L 915 530 L 913 530 L 911 527 L 911 523 L 907 513 Z M 760 358 L 737 343 L 698 343 L 675 354 L 672 352 L 671 356 L 643 369 L 582 411 L 576 409 L 574 416 L 535 443 L 486 452 L 471 459 L 434 497 L 349 549 L 348 558 L 323 569 L 283 577 L 221 609 L 201 625 L 190 628 L 170 644 L 157 639 L 108 654 L 103 672 L 107 689 L 129 734 L 127 737 L 148 752 L 196 752 L 204 747 L 201 734 L 174 712 L 179 680 L 373 622 L 380 616 L 371 605 L 368 585 L 374 601 L 377 598 L 388 617 L 404 624 L 504 576 L 542 552 L 543 530 L 557 546 L 635 512 L 639 507 L 619 471 L 620 452 L 650 410 L 694 370 L 700 374 L 689 382 L 646 434 L 641 433 L 641 440 L 629 456 L 629 471 L 643 495 L 641 499 L 646 500 L 661 527 L 664 526 L 676 543 L 690 554 L 689 560 L 704 559 L 793 528 L 768 512 L 709 526 L 695 493 L 698 489 L 693 488 L 684 466 L 730 431 L 725 443 L 715 448 L 717 451 L 694 473 L 715 520 L 729 517 L 732 512 L 720 483 L 721 475 L 747 452 L 768 425 L 773 405 L 773 386 Z M 795 275 L 794 278 L 792 278 L 790 280 L 785 282 L 777 288 L 767 300 L 761 314 L 760 323 L 758 324 L 758 325 L 760 326 L 761 339 L 766 350 L 766 352 L 770 358 L 770 364 L 773 365 L 772 368 L 776 371 L 776 373 L 778 376 L 779 381 L 776 382 L 779 382 L 781 384 L 782 392 L 784 393 L 786 390 L 791 390 L 792 388 L 794 388 L 805 396 L 805 398 L 806 397 L 810 398 L 811 401 L 828 402 L 833 400 L 837 397 L 838 395 L 840 395 L 850 385 L 850 383 L 855 379 L 855 377 L 858 375 L 858 373 L 860 372 L 868 359 L 875 338 L 875 323 L 874 322 L 874 318 L 870 307 L 864 298 L 859 293 L 858 286 L 853 287 L 844 280 L 844 278 L 843 279 L 840 279 L 837 277 L 830 275 L 829 273 L 828 274 L 819 274 L 818 273 L 815 274 L 806 274 L 801 276 Z"/>
</svg>